PathFileType	3	(X/Y/Z)	walking_2__view2_aligned.trc
DataRate	CameraRate	NumFrames	NumMarkers	Units	OrigDataRate	OrigDataStartFrame	OrigNumFrames
100.0	100.0	17	19	mm	100.0	1009	6310
Frame#	Time	pelvis			neck			head			hip_left			hip_right			knee_left			knee_right			ankle_left			ankle_right			heel_left			heel_right			toe_left			toe_right			shoulder_left			shoulder_right			elbow_left			elbow_right			wrist_left			wrist_right			
		X1	Y1	Z1	X2	Y2	Z2	X3	Y3	Z3	X4	Y4	Z4	X5	Y5	Z5	X6	Y6	Z6	X7	Y7	Z7	X8	Y8	Z8	X9	Y9	Z9	X10	Y10	Z10	X11	Y11	Z11	X12	Y12	Z12	X13	Y13	Z13	X14	Y14	Z14	X15	Y15	Z15	X16	Y16	Z16	X17	Y17	Z17	X18	Y18	Z18	X19	Y19	Z19	
1009	10.08000	-23.627335	932.581535	199.288960	-19.305368	1489.935087	251.212738	-12.586081	1589.607350	396.447409	51.696174	932.974291	195.549699	-98.950891	932.188783	203.028220	62.081688	518.988329	338.652115	-138.334984	505.294919	224.294255	53.531599	100.085830	369.892092	-149.036131	221.887049	-91.733812	47.736019	44.908212	345.740433	-147.331709	206.975699	-148.516312	46.782517	74.332314	566.873961	-160.875708	69.999781	7.762274	146.974592	1433.773346	178.408290	-197.649468	1432.564459	245.397730	219.387735	1146.422184	124.547746	-271.679345	1145.510884	285.542059	300.811165	877.921668	134.701165	-267.154306	928.403398	449.356737
1010	10.09000	-22.107749	932.273619	199.577049	-18.787186	1489.798903	251.326535	-13.019102	1589.249433	396.447104	53.315162	932.879619	195.757380	-97.530684	931.667621	203.396718	63.471508	517.958830	335.488569	-136.481065	506.110352	230.038676	54.491956	99.609023	364.182185	-147.744932	224.785795	-90.753027	48.535097	44.731763	339.793822	-146.117946	210.744622	-148.051665	48.563742	72.584922	560.203016	-158.755277	69.988224	6.403215	147.615623	1434.192306	179.790113	-196.441086	1432.581699	244.089787	220.710895	1147.011847	126.912811	-270.173314	1145.409256	282.065646	302.015038	878.119525	137.604653	-267.561271	926.304362	442.916247
1011	10.10000	-20.588163	931.965704	199.865138	-18.269003	1489.662719	251.440332	-13.452124	1588.891515	396.446798	54.934150	932.784947	195.965062	-96.110476	931.146460	203.765215	64.861329	516.929330	332.325023	-134.627146	506.925785	235.783097	55.452312	99.132215	358.472279	-146.453733	227.684541	-89.772242	49.334174	44.555313	333.847211	-144.904182	214.513544	-147.587018	50.344966	70.837531	553.532072	-156.634846	69.976668	5.044157	148.256655	1434.611266	181.171936	-195.232703	1432.598939	242.781843	222.034054	1147.601509	129.277876	-268.667282	1145.307628	278.589232	303.218911	878.317383	140.508142	-267.968237	924.205326	436.475757
1012	10.11000	-18.969574	932.248501	199.860224	-17.369990	1489.935205	251.713417	-13.725462	1588.946793	396.497876	56.699521	933.283918	196.063906	-94.638669	931.213078	203.656543	66.270681	516.513748	327.599165	-133.545922	508.543849	242.344491	56.152752	98.735164	348.528756	-146.410391	228.975491	-80.608504	49.895556	44.464152	323.337957	-144.917479	215.871255	-138.253592	51.636658	68.517584	543.047956	-156.510445	70.989872	13.783793	149.561088	1435.140572	183.355812	-193.811955	1433.194674	241.246529	223.914379	1148.370057	132.883764	-266.871951	1145.875682	274.031923	303.527610	879.501107	146.872896	-267.974773	922.889206	428.049562
1013	10.12000	-17.350985	932.531298	199.855309	-16.470976	1490.207690	251.986501	-13.998800	1589.002070	396.548954	58.464891	933.782889	196.162751	-93.166863	931.279696	203.547870	67.680034	516.098166	322.873307	-132.464699	510.161914	248.905884	56.853191	98.338113	338.585233	-146.367049	230.266441	-71.444767	50.456938	44.372991	312.828702	-144.930775	217.228965	-128.920167	52.928350	66.197638	532.563840	-156.386043	72.003077	22.523428	150.865521	1435.669878	185.539689	-192.391206	1433.790410	239.711215	225.794704	1149.138605	136.489652	-265.076620	1146.443736	269.474613	303.836308	880.684831	153.237649	-267.981309	921.573087	419.623367
1014	10.13000	-15.732396	932.814096	199.850394	-15.571962	1490.480176	252.259586	-14.272138	1589.057347	396.600033	60.230261	934.281859	196.261595	-91.695056	931.346314	203.439197	69.089386	515.682584	318.147448	-131.383475	511.779978	255.467277	57.553630	97.941063	328.641710	-146.323708	231.557391	-62.281030	51.018319	44.281830	302.319447	-144.944071	218.586675	-119.586741	54.220042	63.877692	522.079724	-156.261642	73.016281	31.263064	152.169955	1436.199185	187.723566	-190.970458	1434.386146	238.175901	227.675029	1149.907153	140.095541	-263.281288	1147.011790	264.917303	304.145006	881.868555	159.602403	-267.987845	920.256968	411.197172
1015	10.14000	-14.113807	933.096893	199.845480	-14.672949	1490.752661	252.532671	-14.545476	1589.112625	396.651111	61.995631	934.780830	196.360440	-90.223249	931.412932	203.330525	70.498739	515.267002	313.421590	-130.302251	513.398043	262.028670	58.254069	97.544012	318.698187	-146.280366	232.848341	-53.117293	51.579701	44.190669	291.810193	-144.957367	219.944385	-110.253315	55.511735	61.557746	511.595608	-156.137241	74.029485	40.002699	153.474388	1436.728491	189.907442	-189.549709	1434.981881	236.640587	229.555354	1150.675701	143.701429	-261.485957	1147.579844	260.359993	304.453704	883.052279	165.967157	-267.994381	918.940848	402.770977
1016	10.15000	-12.495218	933.379690	199.840565	-13.773935	1491.025146	252.805756	-14.818814	1589.167902	396.702189	63.761002	935.279801	196.459285	-88.751442	931.479550	203.221852	71.908092	514.851420	308.695732	-129.221027	515.016107	268.590063	58.954508	97.146961	308.754664	-146.237024	234.139291	-43.953556	52.141083	44.099508	281.300938	-144.970664	221.302096	-100.919889	56.803427	59.237800	501.111492	-156.012839	75.042690	48.742335	154.778821	1437.257797	192.091319	-188.128961	1435.577617	235.105272	231.435679	1151.444249	147.307317	-259.690626	1148.147898	255.802684	304.762402	884.236003	172.331911	-268.000917	917.624729	394.344782
1017	10.16000	-10.876629	933.662488	199.835650	-12.874921	1491.297632	253.078841	-15.092152	1589.223180	396.753267	65.526372	935.778772	196.558129	-87.279635	931.546168	203.113179	73.317444	514.435838	303.969873	-128.139803	516.634171	275.151456	59.654948	96.749911	298.811141	-146.193682	235.430242	-34.789818	52.702465	44.008347	270.791683	-144.983960	222.659806	-91.586463	58.095119	56.917854	490.627377	-155.888438	76.055894	57.481971	156.083255	1437.787103	194.275196	-186.708213	1436.173353	233.569958	233.316004	1152.212797	150.913205	-257.895294	1148.715952	251.245374	305.071100	885.419727	178.696665	-268.007453	916.308609	385.918587
1018	10.17000	-9.258040	933.945285	199.830736	-11.975908	1491.570117	253.351926	-15.365490	1589.278457	396.804345	67.291742	936.277743	196.656974	-85.807828	931.612785	203.004506	74.726797	514.020256	299.244015	-127.058579	518.252236	281.712849	60.355387	96.352860	288.867618	-146.150341	236.721192	-25.626081	53.263846	43.917186	260.282429	-144.997256	224.017516	-82.253037	59.386811	54.597908	480.143261	-155.764036	77.069099	66.221606	157.387688	1438.316409	196.459073	-185.287464	1436.769088	232.034644	235.196329	1152.981345	154.519094	-256.099963	1149.284006	246.688064	305.379798	886.603451	185.061419	-268.013989	914.992490	377.492392
1019	10.18000	-7.639451	934.228083	199.825821	-11.076894	1491.842602	253.625010	-15.638829	1589.333734	396.855423	69.057112	936.776714	196.755819	-84.336021	931.679403	202.895834	76.136150	513.604674	294.518157	-125.977355	519.870300	288.274242	61.055826	95.955809	278.924095	-146.106999	238.012142	-16.462344	53.825228	43.826025	249.773174	-145.010553	225.375226	-72.919612	60.678503	52.277961	469.659145	-155.639635	78.082303	74.961242	158.692121	1438.845715	198.642949	-183.866716	1437.364824	230.499330	237.076654	1153.749893	158.124982	-254.304631	1149.852060	242.130754	305.688497	887.787175	191.426173	-268.020525	913.676370	369.066197
1020	10.19000	-6.020862	934.510880	199.820906	-10.177880	1492.115088	253.898095	-15.912167	1589.389012	396.906502	70.822482	937.275685	196.854663	-82.864214	931.746021	202.787161	77.545502	513.189092	289.792298	-124.896132	521.488365	294.835635	61.756265	95.558758	268.980572	-146.063657	239.303092	-7.298607	54.386610	43.734864	239.263920	-145.023849	226.732937	-63.586186	61.970195	49.958015	459.175029	-155.515233	79.095508	83.700877	159.996555	1439.375021	200.826826	-182.445967	1437.960559	228.964016	238.956979	1154.518441	161.730870	-252.509300	1150.420114	237.573445	305.997195	888.970899	197.790926	-268.027061	912.360251	360.640002
1021	10.20000	-4.402274	934.793677	199.815992	-9.278867	1492.387573	254.171180	-16.185505	1589.444289	396.957580	72.587853	937.774655	196.953508	-81.392407	931.812639	202.678488	78.954855	512.773510	285.066440	-123.814908	523.106429	301.397028	62.456704	95.161708	259.037049	-146.020315	240.594042	1.865130	54.947992	43.643703	228.754665	-145.037145	228.090647	-54.252760	63.261887	47.638069	448.690913	-155.390832	80.108712	92.440513	161.300988	1439.904328	203.010703	-181.025219	1438.556295	227.428702	240.837304	1155.286989	165.336758	-250.713969	1150.988168	233.016135	306.305893	890.154623	204.155680	-268.033597	911.044131	352.213807
1022	10.21000	-2.704318	934.886052	199.356218	-8.230397	1492.608183	254.441407	-16.101189	1589.608678	397.115372	74.361468	938.042792	196.617117	-79.770063	931.729252	202.095336	80.930000	512.431762	278.861395	-122.553380	524.403327	307.329575	64.515768	94.619465	248.196628	-145.710310	239.507756	15.900349	57.054189	43.208293	217.421343	-144.705264	226.373100	-39.538834	65.304661	45.933834	438.013463	-155.937454	81.054637	107.811018	162.812683	1440.078740	205.346123	-179.636179	1438.981192	225.864666	242.440324	1155.613734	169.626906	-248.888645	1151.583666	228.407371	304.947920	891.414110	211.925793	-268.254585	910.005816	343.250872
1023	10.22000	-1.006362	934.978426	198.896445	-7.181928	1492.828792	254.711633	-16.016872	1589.773066	397.273164	76.135084	938.310929	196.280727	-78.147718	931.645865	201.512184	82.905145	512.090013	272.656350	-121.291853	525.700224	313.262121	66.574831	94.077222	237.356208	-145.400305	238.421470	29.935568	59.160386	42.772884	206.088021	-144.373384	224.655553	-24.824908	67.347435	44.229599	427.336013	-156.484075	82.000563	123.181523	164.324378	1440.253151	207.681542	-178.247139	1439.406089	224.300629	244.043344	1155.940479	173.917053	-247.063321	1152.179163	223.798608	303.589947	892.673596	219.695905	-268.475573	908.967502	334.287938
1024	10.23000	0.691594	935.070801	198.436672	-6.133459	1493.049402	254.981859	-15.932556	1589.937455	397.430956	77.908699	938.579066	195.944336	-76.525373	931.562478	200.929031	84.880290	511.748265	266.451306	-120.030325	526.997122	319.194668	68.633894	93.534980	226.515787	-145.090300	237.335184	43.970787	61.266583	42.337474	194.754700	-144.041503	222.938006	-10.110982	69.390209	42.525364	416.658563	-157.030697	82.946488	138.552028	165.836072	1440.427563	210.016962	-176.858099	1439.830987	222.736592	245.646364	1156.267223	178.207200	-245.237997	1152.774661	219.189844	302.231975	893.933082	227.466017	-268.696561	907.929187	325.325003
1025	10.24000	2.389550	935.163175	197.976899	-5.084990	1493.270011	255.252086	-15.848240	1590.101843	397.588748	79.682315	938.847203	195.607945	-74.903029	931.479091	200.345879	86.855434	511.406517	260.246261	-118.768798	528.294019	325.127215	70.692957	92.992737	215.675366	-144.780295	236.248898	58.006006	63.372780	41.902065	183.421378	-143.709623	221.220460	4.602944	71.432983	40.821129	405.981114	-157.577319	83.892413	153.922534	167.347767	1440.601975	212.352382	-175.469058	1440.255884	221.172556	247.249384	1156.593968	182.497348	-243.412673	1153.370159	214.581081	300.874002	895.192568	235.236129	-268.917550	906.890872	316.362068
